<?xml version="1.0" encoding="utf-8"?>
<!-- Generator: Adobe Illustrator 22.1.0, SVG Export Plug-In . SVG Version: 6.00 Build 0)  -->
<svg version="1.1" id="Layer_1" xmlns="http://www.w3.org/2000/svg" xmlns:xlink="http://www.w3.org/1999/xlink" x="0px" y="0px"
	 viewBox="0 0 500 500" style="enable-background:new 0 0 500 500;" xml:space="preserve">
<style type="text/css">
	.st0{fill:#F4F1F0;}
	.st1{fill:#675F58;}
	.st2{fill:#FF931E;}
	.st3{opacity:0.4;fill:#675F58;}
</style>
<g id="money-pig-time">
	<g>
		<path class="st0" d="M250,0C111.9,0,0,111.9,0,250c0,138.1,111.9,250,250,250c138.1,0,250-111.9,250-250C500,111.9,388.1,0,250,0z
			"/>
		<g id="_x31_5">
			<path class="st1" d="M463.8,313.9c-6.4-4.7-15.1-7.4-23.1-7.2c-7.4-5.7-16.6-9.4-21.5-11.3l-1.6-0.6c-0.2-0.1-0.4-0.1-0.6-0.1
				c0-1.1,0.1-2.2,0.1-3.3c0-63.1-49.4-116.8-118.9-138.2c-12.1,15-30.7,24.7-51.5,24.7c-23.4,0-43.9-12.2-55.7-30.6
				c-3.3,0.6-6.5,1.4-9.7,2.2c0.8,0.9,1.7,1.7,2.4,2.7c8.8,12,10.4,26.4,4.3,38.7c-6.5,12.8-20.1,20.7-35.5,20.7
				c-2,0-4.1-0.1-6.2-0.4c-20.2-2.7-28.2-15.5-32.2-26.5c-15.5,14-27.6,30.7-35.4,49.6H64.5c-17,0-30.9,14.8-30.9,33v29.5
				c0,18.2,13.8,33,30.9,33h8.2c9.4,35.9,32.1,66.5,65.7,86.1l0.4,16.9c0.2,8.5,4.4,11.5,6.9,12.5c0.9,0.4,2.2,0.7,3.7,0.7
				c2.6,0,6.1-1.1,10-4.8l11.6-11.1c18.4,5.9,38.8,9.2,61.3,9.2c30.2,0,56-3.6,78.1-9.8l12.2,11.7c3.9,3.7,7.4,4.8,10,4.8
				c1.5,0,2.8-0.3,3.7-0.7c2.5-1,6.7-4,6.9-12.5l0.4-15.9c46.1-23.4,68.7-62.9,73-108.9c3,1.2,5.8,2.5,8.3,3.7
				c-3.8,3-6.2,7.2-6.8,12.2c-0.9,6.5,1.4,12.4,6.2,16.1c3.1,2.3,6.9,3.5,10.7,3.5c2.3,0,4.6-0.4,6.8-1.4c5.7-2.4,9.4-7.6,10.1-14.2
				c0.3-2.3,0.1-4.4-0.3-6.5c1.8,0.7,3.5,1.6,4.9,2.7c2.8,2.1,6.8,1.5,8.9-1.3C467.2,320,466.6,316,463.8,313.9z M135.3,234.5
				c-1.4,11.1-9.1,19.2-17,18.2c-0.2,0-0.3-0.1-0.5-0.1c-5.5-1-9.7-6.2-11-13.1c-0.5-2.7-0.7-5.6-0.3-8.6c1.4-11.1,9.1-19.2,17-18.1
				C131.5,213.6,136.7,223.4,135.3,234.5z M436.5,330.4c-1.5,0.6-3.5,0.4-4.7-0.6c-1.2-0.9-1.6-2.3-1.3-4.2c0.2-1.6,0.9-3.7,4.1-5
				c0.6-0.2,1.2-0.5,1.9-0.6c1.9,2.2,2.8,4.4,2.5,6.5C438.7,328.5,437.9,329.7,436.5,330.4z M127.5,233.8
				c-0.9,7.2-5.5,12.5-10.3,11.9c-4.7-0.6-7.8-7-6.9-14.1c1-7.2,5.5-12.5,10.3-11.9C125.3,220.3,128.4,226.6,127.5,233.8z
				 M100.6,149.9c0,0,44.9-22.1,70.6,2.4c1.7,1.6,3.3,3.5,4.8,5.5c16.1,21.8-1.8,47.3-28.5,43.7c-17-2.2-22.5-13.3-25.6-23.9
				c-1.4-4.8-2.4-9.5-3.7-13.2C114.7,154.5,100.6,149.9,100.6,149.9z"/>
			<g>
				<path id="short-hand" class="st2" d="M246.8,89.2c-2.3,0-4.1,1.8-4.1,4.1v18.3h0c0,0,0,0,0,0c0,2.3,1.8,4.1,4.1,4.1c2.3,0,4.1-1.8,4.1-4.1
					c0,0,0,0,0,0h0V93.4C250.9,91.1,249.1,89.2,246.8,89.2z"/>
				<path class="st2" d="M246.8,54c-31.9,0-57.7,25.8-57.7,57.7c0,12.7,4.2,24.4,11.1,33.9c10.5,14.4,27.4,23.8,46.6,23.8
					c16.9,0,32.1-7.3,42.6-18.9c9.3-10.2,15.1-23.8,15.1-38.8C304.5,79.8,278.7,54,246.8,54z M274.2,147.2c-7.6,5.9-17,9.5-27.4,9.5
					c-12.2,0-23.2-4.9-31.4-12.8c-8.4-8.2-13.6-19.5-13.6-32.2c0-24.8,20.2-45,45-45c24.8,0,45,20.2,45,45
					C291.8,126.2,284.8,138.9,274.2,147.2z"/>
				<path id="long-hand" class="st2" d="M246.8,107.6h-37.7c-2.3,0-4.1,1.8-4.1,4.1c0,2.3,1.8,4.1,4.1,4.1h37.7c2.3,0,4.1-1.8,4.1-4.1
					C250.9,109.4,249.1,107.6,246.8,107.6z"/>
				<circle id="circle" class="st3" cx="246.8" cy="111.7" r="3"/>
			</g>
		</g>
	</g>
</g>
<g id="Layer_1_1_">
</g>
<animateTransform 
           xlink:href="#circle"
           attributeName="transform" 
           attributeType="XML"
           type="rotate"
           from="0 246.8 111.7"
           to="360 246.8 111.7" 
           dur="5s"
           begin="0s"
           repeatCount="indefinite"
           fill="freeze"      
           />
<animateTransform 
           xlink:href="#long-hand"
           attributeName="transform" 
           attributeType="XML"
           type="rotate"
           from="0 246.8 111.7"
           to="360 246.8 111.7" 
           dur="1s"
           begin="0s"
           repeatCount="indefinite"
           fill="freeze"      
           />
<animateTransform 
           xlink:href="#short-hand"
           attributeName="transform" 
           attributeType="XML"
           type="rotate"
           from="0 246.8 111.7"
           to="360 246.8 111.7" 
           dur="60s"
           begin="0s"
           repeatCount="indefinite"
           fill="freeze"      
           />
</svg>
